<?xml version="1.0" encoding="UTF-8"?>
<svg id="Layer_1" xmlns="http://www.w3.org/2000/svg" version="1.1" viewBox="0 0 792 40.58">
  <!-- Generator: Adobe Illustrator 29.8.1, SVG Export Plug-In . SVG Version: 2.1.1 Build 2)  -->
  <defs>
    <style>
      .st0, .st1, .st2, .st3 {
        fill: #231f20;
      }

      .st0, .st4, .st5 {
        stroke-linecap: round;
      }

      .st0, .st4, .st5, .st2, .st3 {
        stroke-miterlimit: 10;
      }

      .st0, .st4, .st2, .st3 {
        stroke: #231f20;
      }

      .st6 {
        fill: #fff;
      }

      .st4 {
        stroke-width: 2px;
      }

      .st4, .st5 {
        fill: none;
      }

      .st5 {
        stroke: #fff;
        stroke-width: .25px;
      }

      .st2 {
        stroke-width: .75px;
      }
    </style>
  </defs>
  <g>
    <g id="layer1">
      <path class="st1" d="M364.34,29.03c-.05-2.79-1.05-5.11,6.85-5.57,0,0,1.72-1.56,3.37-.96,0,0,4.25-4.82,4.56-4.9,1.27-.11,15.32-1.64,18.63.94,0,0,.62.47,1.45,2.53,0,0,.11.21.31,0,.19-.21,1.12-.88,2.32-.14,0,0,2.77-2.05,3.33,1.48,0,0,1.64-.13,1.82,1.32,0,0,1.75.09,1.92,1.83.01,1.66.17,4.41-.12,4.93,0,0-.61,1.21-2.46,1.9,0,0,.03,2.14-.88,3.05-.3.24,1.78,0,1.78,0,0,0,.28-2.56,2.3-1.33.34-.9,3.32-3.12,4.26.72,0,0,.95-.1,1.4.71,0,0,2.04-1.68,3.05.73,0,0-27.98,1.27-33.58,2.94,0,0-19.6-.15-20.26-1.19-.27-.64,2.41-.66,2.41-.66,0,0-1.33-.82-1.27-2.47-1.02,0-1.94-.63-1.92-3.24,0-1.22-.21-2.42.72-2.62h0Z"/>
      <path class="st1" d="M424.53,16.47c2.73-2.1,4.3-3.99,3.77-4.48-1.84-1.68-15.29-2.06-15.29-2.06l-2.78-2.16c.5-.55-.9-.88-.9-.88-7.15-1.43-11.52,1.01-13.82,2.92-2.21,1.84-4.42,2.52-4.42,2.52l.84.88c19.9-4.47,32.69-1.4,34.41-1.01,1.72.38.79.34.79.34-17.96-.92-33.23,1.73-33.23,1.73l.85.94c13.35-2.74,23.46-1.76,23.46-1.76-10.95.25-21.54,2.36-21.54,2.36,0,0-2.27.43-1.63.56,4.01.83,4.99,3.1,4.99,3.1.78-.32,2-.01,2-.01,3.37-1.24,4.17,1.98,4.17,1.98.5.1,1.42.41,2,1.4,4.81.28,10.27-2.23,14.32-4.94"/>
      <path class="st1" d="M424.53,16.47l1.49,1.66s.39.21.38.74-.35.83-.63.97-.53.04-.53.04c0,0-1.5,3.38-1.74,3.79s.15.34.28.34l3.38.03s.71-.07.7.84c0,.83-.18.9-.92.89-.73-.01-3.83-.05-3.83-.01,0,0-.32-.05-.32.54v1.68s-.07.24.2.24.57.13.58.52-.07.62-.5.62h-1.87s-.56-.04-.56-.56.28-.6.46-.6h.19s.2.11.21-.27.04-1.95.04-1.95c0-.08.05-.24-.74-.25s-10.86-.12-10.86-.12c0,0,0-1.28-.5-1.67-.42-.34.57-.29.7-.29.2,0,7.18.12,11.01.19.13,0,.35,0,.5-.45.2-.66,1.76-3.7,1.76-3.7.21-.37.22-.58.1-.7l-1.03-1.08"/>
    </g>
    <path class="st6" d="M395.96,11.71c-.34-.03,2.23-.99,7.69-1.42,0,0-2.32-2.02-2.54-2.46-.16-.26,1.85-.6,2.08-.31.98,1.2,2.96,2.67,2.96,2.67,0,0,.37.27-.67.3,0,0-5.79.32-9.53,1.21h0Z"/>
    <path class="st6" d="M403.49,7.35s5.23-.07,5.91.51c.68.58,2.55,2.08,2.55,2.08h-1.51s-1.43-2.08-6.95-2.58h0Z"/>
    <path class="st6" d="M406.96,19.82s10.59-1.3,16.58-4.05c0,0-6.4,4.75-16.58,4.05Z"/>
    <path class="st6" d="M406.54,18.04c.02.44-.36.8-.8.8s-.8-.36-.8-.8.8-.8.8-.8c-.02-.01.78.34.8.8Z"/>
    <path class="st6" d="M364.43,29.78v1.17s0,.22.8.24c1.22.03,2.18.27,2.78.28.6,0,12.58.18,13.79-.13,0,0,.55-2.22,1.62-3.09s4.73-1.01,5.04,2.29c0,2.12.05,2.61.05,2.61,0,.24.61.42.71-.26,0,0,.48-2.01.27-2.56.24.12.32.52.29,1,0,.06.15.03.58-.01.46-.04,6.33-.76,9.11-.88,0,0,.94-4.75-1.44-10.08,0,0-.54-1.57-3.29-2.07-2.75-.5-13.13-.36-14.94-.02-1.02.17-.69.71-.55.75.12.07,9.45-.21,9.45-.21,0,0,.47-.01,0,.9,0,0-1.74,4.21-2.09,4.15s-4.36-.61-4.56-.44c-.19.16.11.41.12.43.16.19-.23.62-.47.34s-.92-1.21-2.38-.39c0,0-.01-.67-.34-1.12-.36-.51-1.85-1.57-3.28.86,0,0-.11.2-.47-.02s-2.4-.92-3.86.89c-.56.63-.43-.35-.43-.35,0,0-4.18.32-5.22,1.73,0,0,14.67.09,15.24.12.57.04.4,1.77.4,1.77,0,0-.29,1.95-1.66,2.06l-4.01.07s-.56,1.04-1.3.99-8.35.32-8.77-.37c-.41-.68-.19-.55-.37-.71-.21-.16-.8-.05-.81.04h0Z"/>
    <circle class="st6" cx="381.68" cy="21.54" r=".65"/>
    <circle class="st6" cx="384.62" cy="20.69" r=".2"/>
    <circle class="st6" cx="383.69" cy="22.59" r=".41"/>
    <path class="st6" d="M365.09,26.63v1.97c-.02.46.62.68.65,0v-2.02c0-.18-.65-.11-.65.04Z"/>
    <path class="st6" d="M376.07,26.83c-.14.37-.16,1.66-.11,2.32-.07.07,3.54-.08,4-.17.55-.2.73-2.45.44-2.43-1.49,0-4.2-.02-4.32.28Z"/>
    <path class="st6" d="M389.86,22.74s.93-.72,1.7-.7c.77.02,1.42.17,1.43.52s0,.65,0,.65c0,0-.03.4-.36-.12s-2.16-.33-2.54-.08c-.46.27-.39-.14-.22-.26h0Z"/>
    <path class="st6" d="M400.18,30.05l.04-4.13s-.02-.89-.32-1.18c-.29-.29-.14-.45.26-.45s3.58.05,3.58.05c0,0,.36.03.38-.12s.19-.42-.2-.63-.5.3-.5.3h-.28s.24-.35-.42-.35c-.66,0-2.69-.09-2.69-.09,0,0-.26-.01-.24-.49s-.26-.82-.26-.82c0,0-.26-.22.19-.5s1.51-.46,2.18.56c0,0,.27-.94,1.09-1.03.96-.11,1.27.46,1.3.5.06.11.12.2.13.59.02.45-.06.94-.06.94,0,0,.2-.19.46-.18s1.09.09,1.52,1.15c.28.71-.57,1.49-.57,1.49,0,0-.35.28-.66-.22s-.35.35-.35.35c0,0-.11.46.79.69.9.23,1.33-.89,1.33-.89,0,0,0-.97.41-.99.41-.02.6.1.8.6.2.5-.42.75-.42.75,0,0-.09,2.25.09,2.49.05.06.19.12.19.36,0,.16.09.58-.06.84-.21.38-.43.18-.76,1.14,0,0-.09.29-.09.4s-.73.05-.73.05c0,0-.06.05-.06-.47s-.01-1.41-.01-1.41c0,0,.07-.54-.35-1.16-.43-.62-1.06-.81-1.19-.84s-.87-.26-1.48.31c-.61.57-1.01,1.18-1.23,2.04-.21.86-.45,1.86-.45,1.86,0,0-.11.61-.44.57s-.02-1.55-.02-1.55c.01-.05.07-.32-.25-.29-.52.05-.66.1-.66-.24h0Z"/>
    <path class="st6" d="M425.13,18.53c.09.33-.13.55-.49.49-.26-.05-.42-.22-.49-.49-.09-.37.14-.58.49-.49.26.07.41.23.49.49Z"/>
    <path class="st6" d="M371.75,36.72s.74-.27.66-1.02h3.91s.18-.01.21.11c0,0,3.12-.03,3.2,0s.32.4.32.4c.03.04.1.11-.49.13-1.14.04-3.33-.02-3.27.15,0,0,.05.12-.57.12s-3.17.12-3.79.34c-.28.08-.27-.21-.19-.23h0Z"/>
    <path class="st6" d="M386.56,31.82c-.35-1.82-2.35-.93-2.65-.42,0,0-.19.44.38.06.57-.38,1.14-.26,1.14-.26,0,0,.36-.03.81.48.37.43.32.13.32.13h0Z"/>
    <path class="st6" d="M386.08,34.58c-.04,1.19-.66,2.25-1.29,2.23-.58-.02-1.15-1.06-1.15-2.23s.6-2.2,1.16-2.3c.74-.14,1.31,1.03,1.27,2.3h0Z"/>
    <path class="st6" d="M387.65,34.71c-.08.09.1.56-.12.78s.57.13.57.13c0,0,.93-.05,1.34-.04s.03-.27.03-.27c0,0-.38-.42-.47-.6-.06-.11-1.29-.07-1.35,0h0Z"/>
    <path class="st6" d="M400.39,35.34l-7,.05s-.36.04-.2-.21.36-.79.4-.97.06-.25.33-.25,1.44,0,1.44,0c0,0,.14.25.39.27s.49-.09.5-.25h.73s.26,0,.45-.17c.25-.23.45-.43.93-.43s1.57.01,1.57.01c0,0,.24-.01.26.23.03.33.06.91.32,1.21.33.48-.03.54-.12.53h0Z"/>
    <path class="st6" d="M403.4,30.51s.33-.64.87-.64c.37,0,.99.61,1.03,1.75,0,0,.18,1.44-.18,2.31-.37.87-.71,1.19-1.09,1.19s-.89-.84-.97-1.63.25-.12.25-.12c0,0,.41.85.68.91.2.04.74-.09.83-1.31,0,0,.14-1.44-.15-1.97-.29-.53-.61-.46-.61-.46,0,0-.29.02-.45.25-.24.34-.38.09-.21-.27h0Z"/>
    <path class="st5" d="M366.25,26.55s4.37.42,9.02.11"/>
    <path class="st5" d="M366.25,27.05s4.37.34,9.02.03"/>
    <path class="st5" d="M366.25,27.52s4.37.33,9.02.02"/>
    <path class="st5" d="M366.25,28s4.37.28,9.02-.02"/>
    <path class="st5" d="M366.25,28.41s4.37.28,9.02-.03"/>
    <path class="st5" d="M366.25,28.81s4.37.27,9.02-.04"/>
    <circle class="st3" cx="395.42" cy="4.74" r="1.52"/>
    <circle class="st3" cx="388.74" cy="3.12" r="1.02"/>
    <circle class="st3" cx="382.45" cy="7.55" r="1.09"/>
    <circle class="st3" cx="375.92" cy="11.01" r=".88"/>
    <path class="st4" d="M367.9,22.23s.54-3.23,3.19-2.22c0,0-1.13-3.97,3.27-3.35,0,0-.39-3.66,3.78-2.57,0,0,0-4.55,4.01-2.02,0,0,3.78-3.04,5.41,1.6,0,0,2.9-1.13,3.34,1.75,0,0,1.6-1.25,2.65.51"/>
    <path class="st2" d="M375.74,19.74c-1.56-.73-2,.3-2.15.86-.05.18-.56.73-.72.12-.33-1.4,2.05-3.02,2.87-.99Z"/>
    <circle class="st3" cx="377.38" cy="16.67" r=".55"/>
    <path class="st2" d="M382.85,15.07c-.46-3.13-3.58-.8-2.53.35,0,0,.8-2.31,2.53-.35Z"/>
    <path class="st2" d="M387.24,15.46c-.42-2.22-2.72-.65-2.08.21,0,0,.66-1.39,2.08-.21Z"/>
    <circle class="st3" cx="370.81" cy="21.91" r=".27"/>
    <path class="st3" d="M379.21,25.12c.05-1.15-1.95-1.65-2.35-.3,0,.01.04.62.42.12.65-.83,1.93.18,1.93.18Z"/>
    <path class="st3" d="M375.56,25.39c.14-.4-.7-1.34-1.34-.38-.22.32.77-.35,1.34.38Z"/>
    <path class="st3" d="M382.41,27.04s2.55-2.87,5.22-.2c-1.94-.78-3.39-.74-5.22.2Z"/>
    <ellipse class="st3" cx="389.9" cy="27.21" rx=".33" ry=".3"/>
    <circle class="st3" cx="391.86" cy="28.84" r=".45"/>
    <circle class="st3" cx="394.35" cy="29.93" r=".33"/>
    <circle class="st3" cx="397.06" cy="28.31" r=".34"/>
    <path class="st3" d="M394.99,26.03c.03.44-.38.43-.86.44-.81.03-.78-.3-.78-.44,0-.24.31-.31.78-.31s.84.03.86.3h0Z"/>
    <path class="st3" d="M398.87,25.85c.03.44-.38.43-.86.44-.81.03-.78-.3-.78-.44,0-.24.31-.31.78-.31s.84.03.86.3h0Z"/>
    <path class="st3" d="M391.19,18.89c-.12.02-.9-.07-1.31,1.07-.47,1.32-1.73,3.59-1.43,4s.29.58,1.07.69,2.66,0,2.66,0c0,0,.59-.02.84-.57l1.67-.05-1.26-4.76s-.07-.31-.55-.34c-.48-.03-1.16-.05-1.7-.04h0Z"/>
    <path class="st3" d="M394.39,19.42s.81,2.86.94,3.78c.12.93.74.87.74.87,0,0,1.72-.06,1.99-.44.27-.38-1.18-3.75-1.18-3.75,0,0-.22-.49-1.04-.62s-1.32-.13-1.32-.13c-.15,0-.19.1-.12.29h0Z"/>
    <path class="st3" d="M410,28.42v-.72s1.36-1.89,3.41,0c0,0,.24.29.46.01s1.29-.93,2.57-.38,1.48,1.51,1.65,1.9c.17.38.14.91.14.91.27-.11,3.09.11,2.24,3.02,0,0,1.95.13,2.23,1.85,0,0,.18.59-.3.65-.48.06-.54-.19-.67-.55s-.77-1.41-2.63-.92c0,0,.71-1.12.61-1.85s-.48-1.28-1.37-1.38-1.19.22-1.19.22c0,0,.36-1.44-.04-2.05s-1.04-1.35-2.47-.97c-1.1.3-1.25,1.27-1.25,1.27-.77-1.65-1.84-2.18-3.38-1h0Z"/>
    <ellipse class="st3" cx="410.31" cy="31.29" rx=".53" ry=".48"/>
    <path class="st3" d="M416.21,33.82c1.44-2.47-1.49-2.87-2.14-1.53,0,0-.21.4.22.25s.62-.21,1.02-.18c.56.14.87.85.9,1.46h0Z"/>
    <path class="st3" d="M385.52,34.5c-.02.68-.38,1.29-.74,1.28-.33-.01-.66-.61-.66-1.28s.34-1.26.67-1.32c.43-.08.75.59.73,1.32h0Z"/>
    <circle class="st3" cx="389.75" cy="8.29" r="2.03"/>
    <path class="st3" d="M390.9,12.33"/>
    <path class="st3" d="M423.77,17.04"/>
    <path class="st3" d="M423.77,17.04"/>
    <path class="st3" d="M422.58,17.87"/>
    <circle class="st0" cx="401.94" cy="26.47" r=".38"/>
    <path class="st0" d="M403.34,31.74s.59-.62.77.29c.03.15-.16-.14-.29-.2s-.69.09-.48-.09Z"/>
    <path class="st6" d="M376.27,10.86c0,.17-.13.3-.3.3s-.22-.3-.22-.3c0,0-.08-.3.22-.3.17,0,.3.13.3.3Z"/>
    <circle class="st6" cx="382.54" cy="7.3" r=".39"/>
    <path class="st6" d="M389.75,7.69c-.04-.46.23-.8.64-.73.35.06.35.46.64.73.31.29-.06.65-.64.73-.35.05-.6-.33-.64-.73Z"/>
    <path class="st6" d="M396.14,4.36c0,.2-.16.21-.41.21s-.44-.16-.44-.36.01-.36.26-.36.59.31.59.5h0Z"/>
  </g>
  <line class="st4" x1="13.16" y1="25.39" x2="350.21" y2="25.39"/>
  <line class="st4" x1="441.79" y1="25.54" x2="778.84" y2="25.54"/>
</svg>