<?xml version="1.0" encoding="UTF-8"?>
<svg id="Layer_1" xmlns="http://www.w3.org/2000/svg" version="1.1" viewBox="0 0 467.72 132.69">
  <!-- Generator: Adobe Illustrator 29.8.1, SVG Export Plug-In . SVG Version: 2.1.1 Build 2)  -->
  <defs>
    <style>
      .st0 {
        fill: #010101;
      }

      .st1 {
        fill: #231f20;
        font-family: Helvetica, Helvetica;
        font-size: 20px;
        stroke: #000;
        stroke-miterlimit: 10;
        stroke-width: .5px;
      }
    </style>
  </defs>
  <path class="st0" d="M16,31.5c-2.79,1.22-4.79,3.66-6.27,6.53-1.39,2.88-2.27,6.1-2.27,8.97,0,2.61.96,5.49,2.18,8.54s2.79,5.92,4.01,8.1c3.31,5.75,7.58,11.41,12.46,16.12s10.63,8.63,17.08,10.98c3.75,1.48,7.49,3.14,11.67,3.14,2.09,0,5.05-.78,7.75-1.92,2.61-1.13,4.97-2.88,5.84-4.97.35-.78.78-1.83,1.05-3.05.26-1.13.44-2.27.44-3.05,0-.44,0-.87-.09-.96-.26-.52-.87-.96-1.57-1.39-1.57-.78-1.83-1.05-4.18-2.44-2.44-1.39-4.97-2.96-7.14-4.09-1.05-.61-1.74-.87-2-.87-1.39,0-3.14,1.92-4.62,4.01-1.57,2.09-3.31,4.01-4.53,4.01-.61,0-1.22-.26-1.92-.7s-1.39-.78-1.83-1.05c-7.67-4.36-12.81-9.5-17.16-17.08-.52-.87-1.74-2.7-1.74-3.66,0-1.13,1.57-2.44,3.14-3.83,1.48-1.31,3.05-2.88,3.05-4.79,0-.26-.17-1.05-.52-2.18-.78-2.27-1.83-4.88-2.7-7.41-.44-1.22-.78-2.09-.87-2.53-.17-.26-.26-.61-.35-1.05s-.26-.78-.35-1.13c-.26-.78-.7-1.39-1.13-1.74"/>
  <path class="st0" d="M206.95,37.57l8.25,24v32.06c0,1-.41,1.91-1.22,2.72s-1.72,1.22-2.72,1.22h-4.13c-1,0-1.91-.41-2.72-1.22s-1.22-1.72-1.22-2.72v-4.13h-48v4.13c0,1-.41,1.91-1.22,2.72s-1.72,1.22-2.72,1.22h-4.13c-1,0-1.91-.41-2.72-1.22-.81-.81-1.22-1.72-1.22-2.72v-32.06l8.25-24c1-2.63,2.94-3.94,5.81-3.94h43.88c2.88,0,4.81,1.31,5.81,3.94ZM157.17,77.51c1.69,0,3.12-.56,4.31-1.69s1.78-2.53,1.78-4.22-.59-3.13-1.78-4.31-2.63-1.78-4.31-1.78-3.09.59-4.22,1.78-1.69,2.63-1.69,4.31.56,3.09,1.69,4.22,2.53,1.69,4.22,1.69ZM201.23,77.51c1.69,0,3.09-.56,4.22-1.69s1.69-2.53,1.69-4.22-.56-3.13-1.69-4.31-2.53-1.78-4.22-1.78-3.12.59-4.31,1.78-1.78,2.63-1.78,4.31.59,3.09,1.78,4.22,2.63,1.69,4.31,1.69ZM151.26,57.63h55.88l-6-18h-43.88l-6,18Z"/>
  <path class="st0" d="M301.97,41.74v-3.81l-7.14,7.14c-.06.06-.57.22-1.52.48-.63,0-1.13-.27-1.48-.81-.35-.54-.37-1.1-.05-1.66l2.57-5.14v-3.81c-1.08,0-1.98-.37-2.71-1.1s-1.09-1.64-1.1-2.71c0-1.08.37-1.98,1.1-2.72.73-.73,1.64-1.1,2.71-1.09h19.04c1.08,0,1.98.37,2.72,1.1.73.73,1.1,1.64,1.09,2.71v2.95c0,.32-.03.59-.1.81-.06.22-.16.49-.29.81l-3.43,6.86h-11.42ZM294.35,102.68c-2.09,0-3.89-.75-5.38-2.24-1.49-1.49-2.24-3.29-2.24-5.38v-18.76c0-.63.06-1.25.19-1.85.13-.6.35-1.19.67-1.76l12.19-23.04c.7-1.27,1.64-2.27,2.81-3s2.49-1.1,3.95-1.09h6.86c1.08,0,1.98.37,2.72,1.1.73.73,1.1,1.64,1.09,2.71v45.7c0,2.09-.75,3.89-2.24,5.38-1.49,1.49-3.29,2.24-5.38,2.24h-15.23Z"/>
  <g>
    <circle class="st0" cx="416.42" cy="54.59" r="5"/>
    <circle class="st0" cx="436.42" cy="54.59" r="5"/>
    <path class="st0" d="M426.42,99.59c-19.3,0-35-15.7-35-35s15.7-35,35-35,35,15.7,35,35-15.7,35-35,35ZM426.42,34.59c-16.55,0-30,13.45-30,30s13.45,30,30,30,30-13.45,30-30-13.45-30-30-30Z"/>
    <path class="st0" d="M426.42,82.09c-7.4,0-14.05-4.7-16.5-11.65-.38-1.33.39-2.72,1.72-3.1,1.2-.34,2.47.25,2.98,1.4,2.29,6.52,9.44,9.94,15.95,7.65,3.58-1.26,6.39-4.07,7.65-7.65.45-1.3,1.9-2,3.2-1.5,1.3.45,2,1.9,1.5,3.2-2.47,6.99-9.08,11.66-16.5,11.65Z"/>
  </g>
  <text class="st1" transform="translate(11.15 125.74)"><tspan x="0" y="0">BOOK</tspan></text>
  <text class="st1" transform="translate(116.01 21.52)"><tspan x="0" y="0">I COME TO YOU</tspan></text>
  <text class="st1" transform="translate(274.33 125.52)"><tspan x="0" y="0">CLEAN</tspan></text>
  <text class="st1" transform="translate(396.42 21.74)"><tspan x="0" y="0">HAPPY</tspan></text>
  <path class="st0" d="M100.98,57.63c1.04-1.04,2.73-1.04,3.77,0l12,12c1.04,1.04,1.04,2.73,0,3.77l-12,12c-1.06,1.02-2.75.99-3.77-.07-1-1.03-1-2.67,0-3.71l7.22-7.45h-25.34c-1.47,0-2.67-1.19-2.67-2.67s1.19-2.67,2.67-2.67h25.34l-7.22-7.45c-1.04-1.04-1.04-2.73,0-3.77Z"/>
  <path class="st0" d="M253.08,57.63c1.04-1.04,2.73-1.04,3.77,0l12,12c1.04,1.04,1.04,2.73,0,3.77l-12,12c-1.06,1.02-2.75.99-3.77-.07-1-1.03-1-2.67,0-3.71l7.22-7.45h-25.34c-1.47,0-2.67-1.19-2.67-2.67s1.19-2.67,2.67-2.67h25.34l-7.22-7.45c-1.04-1.04-1.04-2.73,0-3.77Z"/>
  <path class="st0" d="M356.42,57.63c1.04-1.04,2.73-1.04,3.77,0l12,12c1.04,1.04,1.04,2.73,0,3.77l-12,12c-1.06,1.02-2.75.99-3.77-.07-1-1.03-1-2.67,0-3.71l7.22-7.45h-25.34c-1.47,0-2.67-1.19-2.67-2.67s1.19-2.67,2.67-2.67h25.34l-7.22-7.45c-1.04-1.04-1.04-2.73,0-3.77Z"/>
</svg>