<?xml version="1.0" encoding="UTF-8"?>
<svg id="Layer_1" xmlns="http://www.w3.org/2000/svg" version="1.1" viewBox="0 0 800 800">
  <!-- Generator: Adobe Illustrator 29.8.1, SVG Export Plug-In . SVG Version: 2.1.1 Build 2)  -->
  <path d="M334.59,177.21l21.63,38.76c19.52,34.98,11.69,80.87-19.06,111.62h0s-37.29,37.3,30.33,104.92c67.6,67.6,104.9,30.35,104.92,30.33h0c30.75-30.75,76.64-38.59,111.62-19.06l38.76,21.63c52.83,29.48,59.06,103.56,12.63,149.99-27.9,27.9-62.08,49.61-99.86,51.04-63.6,2.41-171.62-13.68-279.97-122.04-108.35-108.35-124.45-216.37-122.04-279.97,1.43-37.78,23.14-71.96,51.04-99.86,46.43-46.43,120.51-40.19,149.99,12.63Z"/>
</svg>